<svg width="26" height="24" viewBox="0 0 26 24" fill="none" xmlns="http://www.w3.org/2000/svg">
<path d="M13 18C11.92 18 10.9133 17.7267 9.98 17.18C9.07333 16.6467 8.35333 15.9267 7.82 15.02C7.27333 14.0867 7 13.08 7 12C7 10.92 7.27333 9.91333 7.82 8.98C8.35333 8.07333 9.07333 7.35333 9.98 6.82C10.9133 6.27333 11.92 6 13 6C14.08 6 15.0867 6.27333 16.02 6.82C16.9267 7.35333 17.6467 8.07333 18.18 8.98C18.7267 9.91333 19 10.92 19 12C19 13.08 18.7267 14.0867 18.18 15.02C17.6467 15.9267 16.9267 16.6467 16.02 17.18C15.0867 17.7267 14.08 18 13 18ZM13 16C13.72 16 14.3867 15.82 15 15.46C15.6133 15.1 16.1 14.6133 16.46 14C16.82 13.3867 17 12.72 17 12C17 11.28 16.82 10.6133 16.46 10C16.1 9.38667 15.6133 8.9 15 8.54C14.3867 8.18 13.72 8 13 8C12.28 8 11.6133 8.18 11 8.54C10.3867 8.9 9.9 9.38667 9.54 10C9.18 10.6133 9 11.28 9 12C9 12.72 9.18 13.3867 9.54 14C9.9 14.6133 10.3867 15.1 11 15.46C11.6133 15.82 12.28 16 13 16ZM12 1H14V4H12V1ZM12 20H14V23H12V20ZM4.52 4.92L5.92 3.52L8.06 5.64L6.64 7.06L4.52 4.92ZM17.94 18.36L19.36 16.94L21.48 19.08L20.08 20.48L17.94 18.36ZM20.08 3.52L21.48 4.92L19.36 7.06L17.94 5.64L20.08 3.52ZM6.64 16.94L8.06 18.36L5.92 20.48L4.52 19.08L6.64 16.94ZM24 11V13H21V11H24ZM5 11V13H2V11H5Z" fill="#EAB308"/>
</svg>
