<svg width="22" height="20" viewBox="0 0 22 20" fill="none" xmlns="http://www.w3.org/2000/svg">
<path d="M11.7003 16.1333H16.699V8.61665L10.8671 4.08332L5.03527 8.61665V16.1333H10.034V11.1333H11.7003V16.1333ZM18.3653 16.9667C18.3653 17.2 18.2847 17.3972 18.1237 17.5583C17.9626 17.7194 17.7654 17.8 17.5321 17.8H4.20214C3.96887 17.8 3.7717 17.7194 3.61062 17.5583C3.44955 17.3972 3.36902 17.2 3.36902 16.9667V8.21665C3.36902 7.93888 3.47455 7.71665 3.68561 7.54999L10.3506 2.36665C10.5061 2.25554 10.6783 2.19999 10.8671 2.19999C11.056 2.19999 11.2282 2.25554 11.3837 2.36665L18.0487 7.54999C18.2597 7.71665 18.3653 7.93888 18.3653 8.21665V16.9667Z" fill="#9CA3AF"/>
</svg>
