<svg width="22" height="28" viewBox="0 0 22 28" fill="none" xmlns="http://www.w3.org/2000/svg">
<path d="M11.5753 20.1333H16.5741V12.6167L10.7422 8.08332L4.91033 12.6167V20.1333H9.90908V15.1333H11.5753V20.1333ZM18.2403 20.9667C18.2403 21.2 18.1598 21.3972 17.9987 21.5583C17.8377 21.7194 17.6405 21.8 17.4072 21.8H4.0772C3.84393 21.8 3.64676 21.7194 3.48569 21.5583C3.32462 21.3972 3.24408 21.2 3.24408 20.9667V12.2167C3.24408 11.9389 3.34961 11.7167 3.56067 11.55L10.2257 6.36665C10.3812 6.25554 10.5534 6.19999 10.7422 6.19999C10.931 6.19999 11.1032 6.25554 11.2587 6.36665L17.9237 11.55C18.1348 11.7167 18.2403 11.9389 18.2403 12.2167V20.9667Z" fill="#FFB6C1"/>
</svg>
