<svg width="22" height="20" viewBox="0 0 22 20" fill="none" xmlns="http://www.w3.org/2000/svg">
<path d="M11.7003 16.1333H16.6991V8.61665L10.8672 4.08332L5.03533 8.61665V16.1333H10.0341V11.1333H11.7003V16.1333ZM18.3653 16.9667C18.3653 17.2 18.2848 17.3972 18.1237 17.5583C17.9627 17.7194 17.7655 17.8 17.5322 17.8H4.2022C3.96893 17.8 3.77176 17.7194 3.61069 17.5583C3.44962 17.3972 3.36908 17.2 3.36908 16.9667V8.21665C3.36908 7.93888 3.47461 7.71665 3.68567 7.54999L10.3507 2.36665C10.5062 2.25554 10.6784 2.19999 10.8672 2.19999C11.056 2.19999 11.2282 2.25554 11.3837 2.36665L18.0487 7.54999C18.2598 7.71665 18.3653 7.93888 18.3653 8.21665V16.9667Z" fill="#FFB6C1"/>
</svg>
