<svg width="16" height="20" viewBox="0 0 16 20" fill="none" xmlns="http://www.w3.org/2000/svg">
<path d="M7.99996 14.69L10.8806 11.7967C11.4093 11.2755 11.7669 10.6611 11.9535 9.95332C12.1324 9.2611 12.1324 8.56888 11.9535 7.87666C11.7669 7.16888 11.4112 6.55249 10.8864 6.02749C10.3616 5.50249 9.74544 5.14666 9.03792 4.95999C8.34594 4.7811 7.65397 4.7811 6.96199 4.95999C6.25447 5.14666 5.6383 5.50249 5.11349 6.02749C4.58867 6.55249 4.23297 7.16888 4.04637 7.87666C3.86754 8.56888 3.86754 9.2611 4.04637 9.95332C4.23297 10.6611 4.59062 11.2755 5.11932 11.7967L7.99996 14.69ZM7.99996 16.335L4.29128 12.625C3.61486 11.9561 3.16002 11.1628 2.92677 10.245C2.69352 9.35832 2.69352 8.47166 2.92677 7.58499C3.16002 6.66721 3.61291 5.87194 4.28545 5.19916C4.95799 4.52638 5.75298 4.06944 6.67043 3.82832C7.55678 3.60277 8.44313 3.60277 9.32948 3.82832C10.2469 4.06944 11.0419 4.52638 11.7145 5.19916C12.387 5.87194 12.8399 6.66721 13.0731 7.58499C13.3064 8.47166 13.3064 9.35832 13.0731 10.245C12.8399 11.1628 12.3851 11.9561 11.7086 12.625L7.99996 16.335ZM7.99996 10.0817C8.20988 10.0817 8.40426 10.0292 8.58308 9.92416C8.76191 9.81916 8.9038 9.67721 9.00876 9.49832C9.11372 9.31944 9.16621 9.12499 9.16621 8.91499C9.16621 8.70499 9.11372 8.51055 9.00876 8.33166C8.9038 8.15277 8.76191 8.01082 8.58308 7.90582C8.40426 7.80082 8.20988 7.74832 7.99996 7.74832C7.79003 7.74832 7.59566 7.80082 7.41683 7.90582C7.23801 8.01082 7.09611 8.15277 6.99115 8.33166C6.88619 8.51055 6.83371 8.70499 6.83371 8.91499C6.83371 9.12499 6.88619 9.31944 6.99115 9.49832C7.09611 9.67721 7.23801 9.81916 7.41683 9.92416C7.59566 10.0292 7.79003 10.0817 7.99996 10.0817ZM7.99996 11.2483C7.58011 11.2483 7.19136 11.1433 6.83371 10.9333C6.47606 10.7233 6.19227 10.4394 5.98234 10.0817C5.77242 9.72388 5.66746 9.33305 5.66746 8.90916C5.66746 8.48527 5.77242 8.09638 5.98234 7.74249C6.19227 7.3886 6.47606 7.10666 6.83371 6.89666C7.19136 6.68666 7.58011 6.58166 7.99996 6.58166C8.41981 6.58166 8.80856 6.68666 9.16621 6.89666C9.52386 7.10666 9.80764 7.3886 10.0176 7.74249C10.2275 8.09638 10.3325 8.48527 10.3325 8.90916C10.3325 9.33305 10.2275 9.72388 10.0176 10.0817C9.80764 10.4394 9.52386 10.7233 9.16621 10.9333C8.80856 11.1433 8.41981 11.2483 7.99996 11.2483Z" fill="#6B7280"/>
</svg>
