<svg width="22" height="28" viewBox="0 0 22 28" fill="none" xmlns="http://www.w3.org/2000/svg">
<path d="M4.57721 22.75C4.57721 21.5389 4.88269 20.4167 5.49365 19.3833C6.08239 18.3833 6.87663 17.5889 7.87638 17C8.90946 16.3889 10.0314 16.0833 11.2422 16.0833C12.453 16.0833 13.575 16.3889 14.608 17C15.6078 17.5889 16.402 18.3833 16.9908 19.3833C17.6017 20.4167 17.9072 21.5389 17.9072 22.75H16.241C16.241 21.85 16.0132 21.0111 15.5578 20.2333C15.1135 19.4778 14.5136 18.8778 13.7582 18.4333C12.9807 17.9778 12.142 17.75 11.2422 17.75C10.3424 17.75 9.50376 17.9778 8.72617 18.4333C7.97081 18.8778 7.37096 19.4778 6.92662 20.2333C6.47118 21.0111 6.24346 21.85 6.24346 22.75H4.57721ZM11.2422 15.25C10.3313 15.25 9.49265 15.0222 8.72617 14.5667C7.97081 14.1222 7.37096 13.5222 6.92662 12.7667C6.47118 12 6.24346 11.1611 6.24346 10.25C6.24346 9.33889 6.47118 8.5 6.92662 7.73333C7.37096 6.97778 7.97081 6.37778 8.72617 5.93333C9.49265 5.47778 10.3313 5.25 11.2422 5.25C12.1531 5.25 12.9918 5.47778 13.7582 5.93333C14.5136 6.37778 15.1135 6.97778 15.5578 7.73333C16.0132 8.5 16.241 9.33889 16.241 10.25C16.241 11.1611 16.0132 12 15.5578 12.7667C15.1135 13.5222 14.5136 14.1222 13.7582 14.5667C12.9918 15.0222 12.1531 15.25 11.2422 15.25ZM11.2422 13.5833C11.8421 13.5833 12.3975 13.4333 12.9085 13.1333C13.4194 12.8333 13.8249 12.4278 14.1248 11.9167C14.4247 11.4056 14.5747 10.85 14.5747 10.25C14.5747 9.65 14.4247 9.09444 14.1248 8.58333C13.8249 8.07222 13.4194 7.66667 12.9085 7.36667C12.3975 7.06667 11.8421 6.91667 11.2422 6.91667C10.6424 6.91667 10.0869 7.06667 9.57596 7.36667C9.06498 7.66667 8.65952 8.07222 8.3596 8.58333C8.05967 9.09444 7.90971 9.65 7.90971 10.25C7.90971 10.85 8.05967 11.4056 8.3596 11.9167C8.65952 12.4278 9.06498 12.8333 9.57596 13.1333C10.0869 13.4333 10.6424 13.5833 11.2422 13.5833Z" fill="#9CA3AF"/>
</svg>
