<svg width="22" height="20" viewBox="0 0 22 20" fill="none" xmlns="http://www.w3.org/2000/svg">
<path d="M4.45218 18.75C4.45218 17.5389 4.75766 16.4167 5.36862 15.3833C5.95736 14.3833 6.7516 13.5889 7.75135 13C8.78443 12.3889 9.90637 12.0833 11.1172 12.0833C12.328 12.0833 13.4499 12.3889 14.483 13C15.4828 13.5889 16.277 14.3833 16.8657 15.3833C17.4767 16.4167 17.7822 17.5389 17.7822 18.75H16.1159C16.1159 17.85 15.8882 17.0111 15.4328 16.2333C14.9884 15.4778 14.3886 14.8778 13.6332 14.4333C12.8556 13.9778 12.017 13.75 11.1172 13.75C10.2174 13.75 9.37873 13.9778 8.60114 14.4333C7.84577 14.8778 7.24592 15.4778 6.80159 16.2333C6.34615 17.0111 6.11843 17.85 6.11843 18.75H4.45218ZM11.1172 11.25C10.2063 11.25 9.36762 11.0222 8.60114 10.5667C7.84577 10.1222 7.24592 9.52222 6.80159 8.76667C6.34615 8 6.11843 7.16111 6.11843 6.25C6.11843 5.33889 6.34615 4.5 6.80159 3.73333C7.24592 2.97778 7.84577 2.37778 8.60114 1.93333C9.36762 1.47778 10.2063 1.25 11.1172 1.25C12.0281 1.25 12.8667 1.47778 13.6332 1.93333C14.3886 2.37778 14.9884 2.97778 15.4328 3.73333C15.8882 4.5 16.1159 5.33889 16.1159 6.25C16.1159 7.16111 15.8882 8 15.4328 8.76667C14.9884 9.52222 14.3886 10.1222 13.6332 10.5667C12.8667 11.0222 12.0281 11.25 11.1172 11.25ZM11.1172 9.58333C11.717 9.58333 12.2724 9.43333 12.7834 9.13333C13.2944 8.83333 13.6999 8.42778 13.9998 7.91667C14.2997 7.40555 14.4497 6.85 14.4497 6.25C14.4497 5.65 14.2997 5.09444 13.9998 4.58333C13.6999 4.07222 13.2944 3.66667 12.7834 3.36667C12.2724 3.06667 11.717 2.91667 11.1172 2.91667C10.5173 2.91667 9.96191 3.06667 9.45093 3.36667C8.93995 3.66667 8.53449 4.07222 8.23457 4.58333C7.93464 5.09444 7.78468 5.65 7.78468 6.25C7.78468 6.85 7.93464 7.40555 8.23457 7.91667C8.53449 8.42778 8.93995 8.83333 9.45093 9.13333C9.96191 9.43333 10.5173 9.58333 11.1172 9.58333Z" fill="#9CA3AF"/>
</svg>
