<svg width="22" height="20" viewBox="0 0 22 20" fill="none" xmlns="http://www.w3.org/2000/svg">
<path d="M4.45215 18.75C4.45215 17.5389 4.75763 16.4167 5.36859 15.3833C5.95733 14.3833 6.75157 13.5889 7.75132 13C8.7844 12.3889 9.90634 12.0833 11.1171 12.0833C12.328 12.0833 13.4499 12.3889 14.483 13C15.4827 13.5889 16.277 14.3833 16.8657 15.3833C17.4767 16.4167 17.7821 17.5389 17.7821 18.75H4.45215ZM11.1171 11.25C10.2063 11.25 9.36759 11.0222 8.60111 10.5667C7.84574 10.1222 7.24589 9.52222 6.80156 8.76667C6.34612 8 6.1184 7.16111 6.1184 6.25C6.1184 5.33889 6.34612 4.5 6.80156 3.73333C7.24589 2.97778 7.84574 2.37778 8.60111 1.93333C9.36759 1.47778 10.2063 1.25 11.1171 1.25C12.028 1.25 12.8667 1.47778 13.6332 1.93333C14.3886 2.37778 14.9884 2.97778 15.4327 3.73333C15.8882 4.5 16.1159 5.33889 16.1159 6.25C16.1159 7.16111 15.8882 8 15.4327 8.76667C14.9884 9.52222 14.3886 10.1222 13.6332 10.5667C12.8667 11.0222 12.028 11.25 11.1171 11.25Z" fill="#FFB6C1"/>
</svg>
