<svg width="22" height="20" viewBox="0 0 22 20" fill="none" xmlns="http://www.w3.org/2000/svg">
<path d="M8.11781 1.66683V3.3335H13.1166V1.66683H14.7828V3.3335H18.1153C18.3486 3.3335 18.5458 3.41405 18.7068 3.57516C18.8679 3.73627 18.9484 3.9335 18.9484 4.16683V17.5002C18.9484 17.7335 18.8679 17.9307 18.7068 18.0918C18.5458 18.2529 18.3486 18.3335 18.1153 18.3335H3.11906C2.88578 18.3335 2.68861 18.2529 2.52754 18.0918C2.36647 17.9307 2.28593 17.7335 2.28593 17.5002V4.16683C2.28593 3.9335 2.36647 3.73627 2.52754 3.57516C2.68861 3.41405 2.88578 3.3335 3.11906 3.3335H6.45156V1.66683H8.11781ZM17.2822 10.0002H3.95218V16.6668H17.2822V10.0002ZM6.45156 5.00016H3.95218V8.3335H17.2822V5.00016H14.7828V6.66683H13.1166V5.00016H8.11781V6.66683H6.45156V5.00016Z" fill="#FFB6C1"/>
</svg>
