<svg width="22" height="20" viewBox="0 0 22 20" fill="none" xmlns="http://www.w3.org/2000/svg">
<path d="M8.11781 1.66659V3.33325H13.1166V1.66659H14.7828V3.33325H18.1153C18.3486 3.33325 18.5458 3.41381 18.7068 3.57492C18.8679 3.73603 18.9484 3.93325 18.9484 4.16659V17.4999C18.9484 17.7333 18.8679 17.9305 18.7068 18.0916C18.5458 18.2527 18.3486 18.3333 18.1153 18.3333H3.11906C2.88578 18.3333 2.68861 18.2527 2.52754 18.0916C2.36647 17.9305 2.28593 17.7333 2.28593 17.4999V4.16659C2.28593 3.93325 2.36647 3.73603 2.52754 3.57492C2.68861 3.41381 2.88578 3.33325 3.11906 3.33325H6.45156V1.66659H8.11781ZM17.2822 9.99992H3.95218V16.6666H17.2822V9.99992ZM6.45156 4.99992H3.95218V8.33325H17.2822V4.99992H14.7828V6.66659H13.1166V4.99992H8.11781V6.66659H6.45156V4.99992Z" fill="#9CA3AF"/>
</svg>
