<svg width="21" height="28" viewBox="0 0 21 28" fill="none" xmlns="http://www.w3.org/2000/svg">
<path d="M7.99283 5.66665V7.33331H12.9916V5.66665H14.6578V7.33331H17.9903C18.2236 7.33331 18.4208 7.41387 18.5818 7.57498C18.7429 7.73609 18.8235 7.93331 18.8235 8.16665V21.5C18.8235 21.7333 18.7429 21.9305 18.5818 22.0916C18.4208 22.2528 18.2236 22.3333 17.9903 22.3333H2.99407C2.7608 22.3333 2.56363 22.2528 2.40256 22.0916C2.24149 21.9305 2.16095 21.7333 2.16095 21.5V8.16665C2.16095 7.93331 2.24149 7.73609 2.40256 7.57498C2.56363 7.41387 2.7608 7.33331 2.99407 7.33331H6.32657V5.66665H7.99283ZM17.1572 14H3.8272V20.6666H17.1572V14ZM6.32657 8.99998H3.8272V12.3333H17.1572V8.99998H14.6578V10.6666H12.9916V8.99998H7.99283V10.6666H6.32657V8.99998Z" fill="#9CA3AF"/>
</svg>
