<svg width="49" height="48" viewBox="0 0 49 48" fill="none" xmlns="http://www.w3.org/2000/svg">
<path d="M0.5 24C0.5 10.7452 11.2452 0 24.5 0V0C37.7548 0 48.5 10.7452 48.5 24V24C48.5 37.2548 37.7548 48 24.5 48V48C11.2452 48 0.5 37.2548 0.5 24V24Z" fill="#BBF7D0"/>
<path d="M24.5 31.5C23.48 31.5 22.505 31.305 21.575 30.915C20.685 30.535 19.8925 29.9975 19.1975 29.3025C18.5025 28.6075 17.965 27.815 17.585 26.925C17.195 25.995 17 25.02 17 24C17 22.98 17.195 22.005 17.585 21.075C17.965 20.185 18.5025 19.3925 19.1975 18.6975C19.8925 18.0025 20.685 17.465 21.575 17.085C22.505 16.695 23.48 16.5 24.5 16.5C25.52 16.5 26.495 16.695 27.425 17.085C28.315 17.465 29.1075 18.0025 29.8025 18.6975C30.4975 19.3925 31.035 20.185 31.415 21.075C31.805 22.005 32 22.98 32 24C32 25.02 31.805 25.995 31.415 26.925C31.035 27.815 30.4975 28.6075 29.8025 29.3025C29.1075 29.9975 28.315 30.535 27.425 30.915C26.495 31.305 25.52 31.5 24.5 31.5ZM24.5 30C25.59 30 26.6 29.725 27.53 29.175C28.43 28.645 29.145 27.93 29.675 27.03C30.225 26.1 30.5 25.09 30.5 24C30.5 22.91 30.225 21.9 29.675 20.97C29.145 20.07 28.43 19.355 27.53 18.825C26.6 18.275 25.59 18 24.5 18C23.41 18 22.4 18.275 21.47 18.825C20.57 19.355 19.855 20.07 19.325 20.97C18.775 21.9 18.5 22.91 18.5 24C18.5 25.09 18.775 26.1 19.325 27.03C19.855 27.93 20.57 28.645 21.47 29.175C22.4 29.725 23.41 30 24.5 30ZM21.5 25.5H27.5V27H21.5V25.5ZM21.5 23.25C21.19 23.25 20.925 23.14 20.705 22.92C20.485 22.7 20.375 22.435 20.375 22.125C20.375 21.815 20.485 21.55 20.705 21.33C20.925 21.11 21.19 21 21.5 21C21.81 21 22.075 21.11 22.295 21.33C22.515 21.55 22.625 21.815 22.625 22.125C22.625 22.435 22.515 22.7 22.295 22.92C22.075 23.14 21.81 23.25 21.5 23.25ZM27.5 23.25C27.19 23.25 26.925 23.14 26.705 22.92C26.485 22.7 26.375 22.435 26.375 22.125C26.375 21.815 26.485 21.55 26.705 21.33C26.925 21.11 27.19 21 27.5 21C27.81 21 28.075 21.11 28.295 21.33C28.515 21.55 28.625 21.815 28.625 22.125C28.625 22.435 28.515 22.7 28.295 22.92C28.075 23.14 27.81 23.25 27.5 23.25Z" fill="#22C55E"/>
</svg>
