<svg width="49" height="48" viewBox="0 0 49 48" fill="none" xmlns="http://www.w3.org/2000/svg">
<path d="M0.15625 24C0.15625 10.7452 10.9014 0 24.1562 0V0C37.4111 0 48.1562 10.7452 48.1562 24V24C48.1562 37.2548 37.4111 48 24.1562 48V48C10.9014 48 0.15625 37.2548 0.15625 24V24Z" fill="#FEF08A"/>
<path d="M24.1562 31.5C23.1362 31.5 22.1612 31.305 21.2312 30.915C20.3412 30.535 19.5487 29.9975 18.8537 29.3025C18.1587 28.6075 17.6212 27.815 17.2412 26.925C16.8512 25.995 16.6562 25.02 16.6562 24C16.6562 22.98 16.8512 22.005 17.2412 21.075C17.6212 20.185 18.1587 19.3925 18.8537 18.6975C19.5487 18.0025 20.3412 17.465 21.2312 17.085C22.1612 16.695 23.1362 16.5 24.1562 16.5C25.1762 16.5 26.1512 16.695 27.0812 17.085C27.9712 17.465 28.7637 18.0025 29.4587 18.6975C30.1537 19.3925 30.6912 20.185 31.0712 21.075C31.4612 22.005 31.6562 22.98 31.6562 24C31.6562 25.02 31.4612 25.995 31.0712 26.925C30.6912 27.815 30.1537 28.6075 29.4587 29.3025C28.7637 29.9975 27.9712 30.535 27.0812 30.915C26.1512 31.305 25.1762 31.5 24.1562 31.5ZM24.1562 30C25.2462 30 26.2562 29.725 27.1862 29.175C28.0862 28.645 28.8012 27.93 29.3312 27.03C29.8812 26.1 30.1562 25.09 30.1562 24C30.1562 22.91 29.8812 21.9 29.3312 20.97C28.8012 20.07 28.0862 19.355 27.1862 18.825C26.2562 18.275 25.2462 18 24.1562 18C23.0662 18 22.0562 18.275 21.1262 18.825C20.2262 19.355 19.5112 20.07 18.9812 20.97C18.4312 21.9 18.1562 22.91 18.1562 24C18.1562 25.09 18.4312 26.1 18.9812 27.03C19.5112 27.93 20.2262 28.645 21.1262 29.175C22.0562 29.725 23.0662 30 24.1562 30ZM20.4062 24.75H21.9062C21.9062 25.16 22.0062 25.5375 22.2062 25.8825C22.4062 26.2275 22.6787 26.5 23.0237 26.7C23.3687 26.9 23.7462 27 24.1562 27C24.5662 27 24.9437 26.9 25.2887 26.7C25.6337 26.5 25.9062 26.2275 26.1062 25.8825C26.3062 25.5375 26.4062 25.16 26.4062 24.75H27.9062C27.9062 25.43 27.7387 26.0575 27.4037 26.6325C27.0687 27.2075 26.6137 27.6625 26.0387 27.9975C25.4637 28.3325 24.8362 28.5 24.1562 28.5C23.4762 28.5 22.8487 28.3325 22.2737 27.9975C21.6987 27.6625 21.2437 27.2075 20.9087 26.6325C20.5737 26.0575 20.4062 25.43 20.4062 24.75ZM21.1562 23.25C20.8462 23.25 20.5812 23.14 20.3612 22.92C20.1412 22.7 20.0312 22.435 20.0312 22.125C20.0312 21.815 20.1412 21.55 20.3612 21.33C20.5812 21.11 20.8462 21 21.1562 21C21.4662 21 21.7312 21.11 21.9512 21.33C22.1712 21.55 22.2812 21.815 22.2812 22.125C22.2812 22.435 22.1712 22.7 21.9512 22.92C21.7312 23.14 21.4662 23.25 21.1562 23.25ZM27.1562 23.25C26.8462 23.25 26.5812 23.14 26.3612 22.92C26.1412 22.7 26.0312 22.435 26.0312 22.125C26.0312 21.815 26.1412 21.55 26.3612 21.33C26.5812 21.11 26.8462 21 27.1562 21C27.4662 21 27.7312 21.11 27.9512 21.33C28.1712 21.55 28.2812 21.815 28.2812 22.125C28.2812 22.435 28.1712 22.7 27.9512 22.92C27.7312 23.14 27.4662 23.25 27.1562 23.25Z" fill="#EAB308"/>
</svg>
