<svg width="49" height="48" viewBox="0 0 49 48" fill="none" xmlns="http://www.w3.org/2000/svg">
<path d="M0.5 24C0.5 10.7452 11.2452 0 24.5 0V0C37.7548 0 48.5 10.7452 48.5 24V24C48.5 37.2548 37.7548 48 24.5 48V48C11.2452 48 0.5 37.2548 0.5 24V24Z" fill="#FECACA"/>
<path d="M24.5 16.5C25.52 16.5 26.495 16.695 27.425 17.085C28.315 17.465 29.1075 18.0025 29.8025 18.6975C30.4975 19.3925 31.035 20.185 31.415 21.075C31.805 22.005 32 22.98 32 24C32 24.54 31.945 25.07 31.835 25.59L30.5 24.255V24C30.5 22.91 30.225 21.9 29.675 20.97C29.145 20.07 28.43 19.355 27.53 18.825C26.6 18.275 25.59 18 24.5 18C23.41 18 22.4 18.275 21.47 18.825C20.57 19.355 19.855 20.07 19.325 20.97C18.775 21.9 18.5 22.91 18.5 24C18.5 25.09 18.775 26.1 19.325 27.03C19.855 27.93 20.57 28.645 21.47 29.175C22.4 29.725 23.41 30 24.5 30C25.46 30 26.365 29.785 27.215 29.355C27.335 29.545 27.475 29.715 27.635 29.865C27.855 30.095 28.105 30.28 28.385 30.42C27.805 30.77 27.1875 31.0375 26.5325 31.2225C25.8775 31.4075 25.2 31.5 24.5 31.5C23.48 31.5 22.505 31.305 21.575 30.915C20.685 30.535 19.8925 29.9975 19.1975 29.3025C18.5025 28.6075 17.965 27.815 17.585 26.925C17.195 25.995 17 25.02 17 24C17 22.98 17.195 22.005 17.585 21.075C17.965 20.185 18.5025 19.3925 19.1975 18.6975C19.8925 18.0025 20.685 17.465 21.575 17.085C22.505 16.695 23.48 16.5 24.5 16.5ZM29.75 25.635L30.815 26.685C31.005 26.875 31.1325 27.1 31.1975 27.36C31.2625 27.62 31.2625 27.88 31.1975 28.14C31.1325 28.4 31.005 28.625 30.815 28.815C30.625 29.005 30.4 29.1325 30.14 29.1975C29.88 29.2625 29.62 29.2625 29.36 29.1975C29.1 29.1325 28.875 29.005 28.685 28.815C28.405 28.535 28.26 28.1975 28.25 27.8025C28.24 27.4075 28.36 27.065 28.61 26.775L29.75 25.635ZM24.5 26.25C25.04 26.25 25.55 26.3575 26.03 26.5725C26.51 26.7875 26.925 27.09 27.275 27.48L26.57 28.125C25.94 27.875 25.25 27.75 24.5 27.75C23.75 27.75 23.06 27.875 22.43 28.125L21.725 27.48C22.075 27.09 22.49 26.7875 22.97 26.5725C23.45 26.3575 23.96 26.25 24.5 26.25ZM21.875 22.5C22.185 22.5 22.45 22.61 22.67 22.83C22.89 23.05 23 23.315 23 23.625C23 23.935 22.89 24.2 22.67 24.42C22.45 24.64 22.185 24.75 21.875 24.75C21.565 24.75 21.3 24.64 21.08 24.42C20.86 24.2 20.75 23.935 20.75 23.625C20.75 23.315 20.86 23.05 21.08 22.83C21.3 22.61 21.565 22.5 21.875 22.5ZM27.125 22.5C27.435 22.5 27.7 22.61 27.92 22.83C28.14 23.05 28.25 23.315 28.25 23.625C28.25 23.935 28.14 24.2 27.92 24.42C27.7 24.64 27.435 24.75 27.125 24.75C26.815 24.75 26.55 24.64 26.33 24.42C26.11 24.2 26 23.935 26 23.625C26 23.315 26.11 23.05 26.33 22.83C26.55 22.61 26.815 22.5 27.125 22.5Z" fill="#EF4444"/>
</svg>
