<svg width="49" height="48" viewBox="0 0 49 48" fill="none" xmlns="http://www.w3.org/2000/svg">
<path d="M0.828125 24C0.828125 10.7452 11.5733 0 24.8281 0V0C38.083 0 48.8281 10.7452 48.8281 24V24C48.8281 37.2548 38.083 48 24.8281 48V48C11.5733 48 0.828125 37.2548 0.828125 24V24Z" fill="#BFDBFE"/>
<path d="M24.8281 31.5C23.8081 31.5 22.8331 31.305 21.9031 30.915C21.0131 30.535 20.2206 29.9975 19.5256 29.3025C18.8306 28.6075 18.2931 27.815 17.9131 26.925C17.5231 25.995 17.3281 25.02 17.3281 24C17.3281 22.98 17.5231 22.005 17.9131 21.075C18.2931 20.185 18.8306 19.3925 19.5256 18.6975C20.2206 18.0025 21.0131 17.465 21.9031 17.085C22.8331 16.695 23.8081 16.5 24.8281 16.5C25.8481 16.5 26.8231 16.695 27.7531 17.085C28.6431 17.465 29.4356 18.0025 30.1306 18.6975C30.8256 19.3925 31.3631 20.185 31.7431 21.075C32.1331 22.005 32.3281 22.98 32.3281 24C32.3281 25.02 32.1331 25.995 31.7431 26.925C31.3631 27.815 30.8256 28.6075 30.1306 29.3025C29.4356 29.9975 28.6431 30.535 27.7531 30.915C26.8231 31.305 25.8481 31.5 24.8281 31.5ZM24.8281 30C25.9181 30 26.9281 29.725 27.8581 29.175C28.7581 28.645 29.4731 27.93 30.0031 27.03C30.5531 26.1 30.8281 25.09 30.8281 24C30.8281 22.91 30.5531 21.9 30.0031 20.97C29.4731 20.07 28.7581 19.355 27.8581 18.825C26.9281 18.275 25.9181 18 24.8281 18C23.7381 18 22.7281 18.275 21.7981 18.825C20.8981 19.355 20.1831 20.07 19.6531 20.97C19.1031 21.9 18.8281 22.91 18.8281 24C18.8281 25.09 19.1031 26.1 19.6531 27.03C20.1831 27.93 20.8981 28.645 21.7981 29.175C22.7281 29.725 23.7381 30 24.8281 30ZM21.8281 24.75H27.8281C27.8281 25.29 27.6931 25.79 27.4231 26.25C27.1531 26.71 26.7881 27.075 26.3281 27.345C25.8681 27.615 25.3681 27.75 24.8281 27.75C24.2881 27.75 23.7881 27.615 23.3281 27.345C22.8681 27.075 22.5031 26.71 22.2331 26.25C21.9631 25.79 21.8281 25.29 21.8281 24.75ZM21.8281 23.25C21.5181 23.25 21.2531 23.14 21.0331 22.92C20.8131 22.7 20.7031 22.435 20.7031 22.125C20.7031 21.815 20.8131 21.55 21.0331 21.33C21.2531 21.11 21.5181 21 21.8281 21C22.1381 21 22.4031 21.11 22.6231 21.33C22.8431 21.55 22.9531 21.815 22.9531 22.125C22.9531 22.435 22.8431 22.7 22.6231 22.92C22.4031 23.14 22.1381 23.25 21.8281 23.25ZM27.8281 23.25C27.5181 23.25 27.2531 23.14 27.0331 22.92C26.8131 22.7 26.7031 22.435 26.7031 22.125C26.7031 21.815 26.8131 21.55 27.0331 21.33C27.2531 21.11 27.5181 21 27.8281 21C28.1381 21 28.4031 21.11 28.6231 21.33C28.8431 21.55 28.9531 21.815 28.9531 22.125C28.9531 22.435 28.8431 22.7 28.6231 22.92C28.4031 23.14 28.1381 23.25 27.8281 23.25Z" fill="#3B82F6"/>
</svg>
