<svg width="51" height="48" viewBox="0 0 51 48" fill="none" xmlns="http://www.w3.org/2000/svg">
<path d="M25.5 44C22.78 44 20.18 43.48 17.7 42.44C15.3267 41.4267 13.2133 39.9933 11.36 38.14C9.50667 36.2867 8.07333 34.1733 7.06 31.8C6.02 29.32 5.5 26.72 5.5 24C5.5 21.28 6.02 18.68 7.06 16.2C8.07333 13.8267 9.50667 11.7133 11.36 9.86C13.2133 8.00667 15.3267 6.57333 17.7 5.56C20.18 4.52 22.78 4 25.5 4C28.22 4 30.82 4.52 33.3 5.56C35.6733 6.57333 37.7867 8.00667 39.64 9.86C41.4933 11.7133 42.9267 13.8267 43.94 16.2C44.98 18.68 45.5 21.28 45.5 24C45.5 26.72 44.98 29.32 43.94 31.8C42.9267 34.1733 41.4933 36.2867 39.64 38.14C37.7867 39.9933 35.6733 41.4267 33.3 42.44C30.82 43.48 28.22 44 25.5 44ZM25.5 40C28.4067 40 31.1 39.2667 33.58 37.8C35.98 36.3867 37.8867 34.48 39.3 32.08C40.7667 29.6 41.5 26.9067 41.5 24C41.5 21.0933 40.7667 18.4 39.3 15.92C37.8867 13.52 35.98 11.6133 33.58 10.2C31.1 8.73333 28.4067 8 25.5 8C22.5933 8 19.9 8.73333 17.42 10.2C15.02 11.6133 13.1133 13.52 11.7 15.92C10.2333 18.4 9.5 21.0933 9.5 24C9.5 26.9067 10.2333 29.6 11.7 32.08C13.1133 34.48 15.02 36.3867 17.42 37.8C19.9 39.2667 22.5933 40 25.5 40ZM17.5 28H33.5V32H17.5V28ZM17.5 22C16.6733 22 15.9667 21.7067 15.38 21.12C14.7933 20.5333 14.5 19.8267 14.5 19C14.5 18.1733 14.7933 17.4667 15.38 16.88C15.9667 16.2933 16.6733 16 17.5 16C18.3267 16 19.0333 16.2933 19.62 16.88C20.2067 17.4667 20.5 18.1733 20.5 19C20.5 19.8267 20.2067 20.5333 19.62 21.12C19.0333 21.7067 18.3267 22 17.5 22ZM33.5 22C32.6733 22 31.9667 21.7067 31.38 21.12C30.7933 20.5333 30.5 19.8267 30.5 19C30.5 18.1733 30.7933 17.4667 31.38 16.88C31.9667 16.2933 32.6733 16 33.5 16C34.3267 16 35.0333 16.2933 35.62 16.88C36.2067 17.4667 36.5 18.1733 36.5 19C36.5 19.8267 36.2067 20.5333 35.62 21.12C35.0333 21.7067 34.3267 22 33.5 22Z" fill="#4B5563"/>
</svg>
