<svg width="49" height="48" viewBox="0 0 49 48" fill="none" xmlns="http://www.w3.org/2000/svg">
<path d="M0.828125 24C0.828125 10.7452 11.5733 0 24.8281 0V0C38.083 0 48.8281 10.7452 48.8281 24V24C48.8281 37.2548 38.083 48 24.8281 48V48C11.5733 48 0.828125 37.2548 0.828125 24V24Z" fill="#FED7AA"/>
<path d="M24.8281 16.5C25.8481 16.5 26.8231 16.695 27.7531 17.085C28.6431 17.465 29.4356 18.0025 30.1306 18.6975C30.8256 19.3925 31.3631 20.185 31.7431 21.075C32.1331 22.005 32.3281 22.98 32.3281 24C32.3281 25.02 32.1331 25.995 31.7431 26.925C31.3631 27.815 30.8256 28.6075 30.1306 29.3025C29.4356 29.9975 28.6431 30.535 27.7531 30.915C26.8231 31.305 25.8481 31.5 24.8281 31.5C23.8081 31.5 22.8331 31.305 21.9031 30.915C21.0131 30.535 20.2206 29.9975 19.5256 29.3025C18.8306 28.6075 18.2931 27.815 17.9131 26.925C17.5231 25.995 17.3281 25.02 17.3281 24C17.3281 22.98 17.5231 22.005 17.9131 21.075C18.2931 20.185 18.8306 19.3925 19.5256 18.6975C20.2206 18.0025 21.0131 17.465 21.9031 17.085C22.8331 16.695 23.8081 16.5 24.8281 16.5ZM24.8281 18C23.7381 18 22.7281 18.275 21.7981 18.825C20.8981 19.355 20.1831 20.07 19.6531 20.97C19.1031 21.9 18.8281 22.91 18.8281 24C18.8281 25.09 19.1031 26.1 19.6531 27.03C20.1831 27.93 20.8981 28.645 21.7981 29.175C22.7281 29.725 23.7381 30 24.8281 30C25.9181 30 26.9281 29.725 27.8581 29.175C28.7581 28.645 29.4731 27.93 30.0031 27.03C30.5531 26.1 30.8281 25.09 30.8281 24C30.8281 22.91 30.5531 21.9 30.0031 20.97C29.4731 20.07 28.7581 19.355 27.8581 18.825C26.9281 18.275 25.9181 18 24.8281 18ZM24.8281 23.25C26.3281 23.25 27.5781 23.5 28.5781 24C28.5781 24.68 28.4106 25.3075 28.0756 25.8825C27.7406 26.4575 27.2856 26.9125 26.7106 27.2475C26.1356 27.5825 25.5081 27.75 24.8281 27.75C24.1481 27.75 23.5206 27.5825 22.9456 27.2475C22.3706 26.9125 21.9156 26.4575 21.5806 25.8825C21.2456 25.3075 21.0781 24.68 21.0781 24C22.0781 23.5 23.3281 23.25 24.8281 23.25ZM22.2031 20.25C22.6531 20.25 23.0506 20.3925 23.3956 20.6775C23.7406 20.9625 23.9581 21.32 24.0481 21.75H20.3581C20.4481 21.32 20.6656 20.9625 21.0106 20.6775C21.3556 20.3925 21.7531 20.25 22.2031 20.25ZM27.4531 20.25C27.9031 20.25 28.3006 20.3925 28.6456 20.6775C28.9906 20.9625 29.2081 21.32 29.2981 21.75H25.6081C25.6981 21.32 25.9156 20.9625 26.2606 20.6775C26.6056 20.3925 27.0031 20.25 27.4531 20.25Z" fill="#F97316"/>
</svg>
