<svg width="49" height="48" viewBox="0 0 49 48" fill="none" xmlns="http://www.w3.org/2000/svg">
<path d="M0.15625 24C0.15625 10.7452 10.9014 0 24.1562 0V0C37.4111 0 48.1562 10.7452 48.1562 24V24C48.1562 37.2548 37.4111 48 24.1562 48V48C10.9014 48 0.15625 37.2548 0.15625 24V24Z" fill="#E9D5FF"/>
<path d="M24.1562 31.5C23.1362 31.5 22.1612 31.305 21.2312 30.915C20.3412 30.535 19.5487 29.9975 18.8537 29.3025C18.1587 28.6075 17.6212 27.815 17.2412 26.925C16.8512 25.995 16.6562 25.02 16.6562 24C16.6562 22.98 16.8512 22.005 17.2412 21.075C17.6212 20.185 18.1587 19.3925 18.8537 18.6975C19.5487 18.0025 20.3412 17.465 21.2312 17.085C22.1612 16.695 23.1362 16.5 24.1562 16.5C25.1762 16.5 26.1512 16.695 27.0812 17.085C27.9712 17.465 28.7637 18.0025 29.4587 18.6975C30.1537 19.3925 30.6912 20.185 31.0712 21.075C31.4612 22.005 31.6562 22.98 31.6562 24C31.6562 25.02 31.4612 25.995 31.0712 26.925C30.6912 27.815 30.1537 28.6075 29.4587 29.3025C28.7637 29.9975 27.9712 30.535 27.0812 30.915C26.1512 31.305 25.1762 31.5 24.1562 31.5ZM24.1562 30C25.2462 30 26.2562 29.725 27.1862 29.175C28.0862 28.645 28.8012 27.93 29.3312 27.03C29.8812 26.1 30.1562 25.09 30.1562 24C30.1562 22.91 29.8812 21.9 29.3312 20.97C28.8012 20.07 28.0862 19.355 27.1862 18.825C26.2562 18.275 25.2462 18 24.1562 18C23.0662 18 22.0562 18.275 21.1262 18.825C20.2262 19.355 19.5112 20.07 18.9812 20.97C18.4312 21.9 18.1562 22.91 18.1562 24C18.1562 25.09 18.4312 26.1 18.9812 27.03C19.5112 27.93 20.2262 28.645 21.1262 29.175C22.0562 29.725 23.0662 30 24.1562 30ZM21.1562 24.75H27.1562C27.1562 25.29 27.0212 25.79 26.7512 26.25C26.4812 26.71 26.1162 27.075 25.6562 27.345C25.1962 27.615 24.6962 27.75 24.1562 27.75C23.6162 27.75 23.1162 27.615 22.6562 27.345C22.1962 27.075 21.8312 26.71 21.5612 26.25C21.2912 25.79 21.1562 25.29 21.1562 24.75Z" fill="#A855F7"/>
</svg>
